<?xml version="1.0" encoding="utf-8"?>
<!-- Generator: Adobe Illustrator 22.0.1, SVG Export Plug-In . SVG Version: 6.00 Build 0)  -->
<svg version="1.1" id="Layer_1" xmlns="http://www.w3.org/2000/svg" xmlns:xlink="http://www.w3.org/1999/xlink" x="0px" y="0px"
	 viewBox="0 0 309.6 343.7" style="enable-background:new 0 0 309.6 343.7;" xml:space="preserve">
<style type="text/css">
	.st0{fill:#231F20;}
</style>
<title>Commander</title>
<circle class="st0" cx="98.5" cy="100.6" r="11.8"/>
<circle class="st0" cx="252.5" cy="158.1" r="11.5"/>
<circle class="st0" cx="119.3" cy="261.8" r="11.5"/>
<path class="st0" d="M267.3,174.9C196.5,88.8,100.6,76.6,99.7,76.4l0.6-5.4c1,0.1,99,12.6,171.2,100.4L267.3,174.9z"/>
<path class="st0" d="M94.3,267C77.5,146.7,97.2,73.7,97.4,73l5.2,1.4c-0.2,0.7-19.5,72.7-2.9,191.8L94.3,267z"/>
<path class="st0" d="M97.1,269.3l-0.2-5.4c0.7,0,72.4-3.6,170.7-92.7l3.6,4C171.2,265.9,100,269.3,97.1,269.3z"/>
<path class="st0" d="M43.3,173.4l-3.6-4.1C131.4,89,211.9,71.2,212.7,71l1.1,5.3C213.1,76.6,133.9,94.1,43.3,173.4z"/>
<path class="st0" d="M212.2,269.3C101.6,247.7,40,173.9,39.4,173.1l4.2-3.4c0.6,0.7,61,73.1,169.6,94.3L212.2,269.3z"/>
<path class="st0" d="M215.2,267.8l-4.9-2.4c0.4-0.7,35-75.3,0.4-190.9l5.2-1.6C251.1,190.8,215.5,267.1,215.2,267.8z"/>
<path class="st0" d="M195.2,100.6v35.9c0,0-53.4-5.1-53.4,36.8s53.4,37.4,53.4,37.4v33.4c0,0-95.2,8.4-95.2-70.8
	S195.2,100.6,195.2,100.6z"/>
<path class="st0" d="M155.7,343.7L155.7,343.7c-32.8,0-55.9-58.7-61.1-72.9c-16.7,2.9-31.4,4.4-43.6,4.4c-26.3,0-42.7-6.8-48.6-20.2
	c-12.1-27.4,25-72.7,34.4-83.6C5.6,132.2-5.3,104.2,3.4,85.9C10,72.1,27.4,65.1,55,65.1c14.3,0.2,28.6,1.7,42.7,4.5
	C103.2,55.8,127.3,0,159.3,0c20.8,0,39.7,23.4,56.4,69.7c12-2.1,24.1-3.2,36.3-3.3c28.9,0,47.1,7.3,54,21.7
	c8.9,18.5-1.5,46.4-31.9,85.1c9,11,45.3,57.8,32.9,84.9c-5.7,12.5-20.4,18.8-43.7,18.8c-13.1,0-29.3-2-48.2-6
	C196.5,319.8,177.1,343.7,155.7,343.7z M99.5,262.5l1,3c0.2,0.7,23.9,70.9,55.2,70.9l0,0c18,0,36.5-24.6,53.7-71l1.1-3l3.1,0.7
	c19.7,4.3,36.4,6.5,49.7,6.5c20.2,0,32.7-4.9,37.1-14.5c9.9-21.6-21-64.7-33.7-79.5l-2-2.3l1.9-2.3c29.1-36.5,40.5-64.1,32.9-79.8
	c-7-14.6-29.7-17.6-47.5-17.6c-12.7,0.1-25.4,1.4-37.9,3.7l-3.1,0.6l-1-3c-15.6-44.3-33.1-67.8-50.6-67.8c-25.5,0-49,49-55.9,67.8
	l-1.1,3l-3.1-0.7c-0.2,0-22-5-44.2-5c-16.9,0-38.5,2.9-45.1,16.7c-7.4,15.4,4.5,43.2,34.5,80.1l2,2.4l-2.1,2.3
	C31.3,188-0.5,229.9,9.2,251.8c4.7,10.6,18.8,15.9,42,15.9c12.5,0,27.8-1.6,45.4-4.8L99.5,262.5z"/>
</svg>
